<?xml version="1.0" encoding="UTF-8"?>
<svg xmlns="http://www.w3.org/2000/svg" width="238" height="40" viewBox="0 0 238 40" fill="none">
  <g clip-path="url(#clip0_2_3)">
    <mask id="mask0_2_3" style="mask-type:luminance" maskUnits="userSpaceOnUse" x="0" y="0" width="238" height="40">
      <path d="M237.624 0H0V39.6178H237.624V0Z" fill="white"></path>
    </mask>
    <g mask="url(#mask0_2_3)">
      <path d="M96.0251 14.0996C96.3621 14.5213 96.5297 15.0008 96.5297 15.534C96.5297 15.9907 96.4116 16.402 96.174 16.7678C95.9364 17.1337 95.5954 17.423 95.1467 17.6338C94.6984 17.8446 94.1776 17.95 93.5823 17.95H89.9883V8.96582H93.4148C94.0267 8.96582 94.5515 9.06915 94.9918 9.2758C95.4322 9.48249 95.7625 9.7615 95.9879 10.1087C96.2132 10.4559 96.3249 10.8486 96.3249 11.2785C96.3249 11.7952 96.1863 12.2272 95.9114 12.5702C95.6366 12.9154 95.2647 13.1696 94.7998 13.3329C95.2814 13.4197 95.6924 13.6739 96.0271 14.0955L96.0251 14.0996ZM91.4619 12.7418H93.2845C93.7661 12.7418 94.1443 12.6322 94.4152 12.4131C94.6861 12.1941 94.8223 11.8758 94.8223 11.4625C94.8223 11.0491 94.6861 10.7411 94.4152 10.5118C94.1443 10.2844 93.7661 10.1687 93.2845 10.1687H91.4619V12.7418ZM94.6279 16.3875C94.9134 16.1457 95.054 15.8109 95.054 15.379C95.054 14.947 94.9031 14.5895 94.6013 14.3311C94.2996 14.0728 93.8984 13.9426 93.3982 13.9426H91.4596V16.7472H93.4501C93.9503 16.7472 94.3427 16.6273 94.6259 16.3855L94.6279 16.3875Z" fill="#BDBDBD"></path>
      <path d="M104.583 10.8282V17.9503H103.109V17.1091C102.878 17.4026 102.572 17.632 102.198 17.8015C101.824 17.9689 101.425 18.0536 101.001 18.0536C100.441 18.0536 99.9389 17.9379 99.4945 17.7044C99.0502 17.4708 98.7009 17.1277 98.4466 16.671C98.1923 16.2142 98.0664 15.6624 98.0664 15.0155V10.8262H99.5278V14.7943C99.5278 15.433 99.6866 15.9207 100.005 16.2617C100.323 16.6028 100.759 16.7722 101.311 16.7722C101.863 16.7722 102.301 16.6028 102.624 16.2617C102.946 15.9207 103.107 15.433 103.107 14.7943V10.8262H104.581L104.583 10.8282Z" fill="#BDBDBD"></path>
      <path d="M107.602 17.7637C107.158 17.5611 106.806 17.2863 106.548 16.937C106.29 16.5877 106.151 16.1971 106.135 15.7672H107.66C107.685 16.0689 107.83 16.3211 108.094 16.5236C108.357 16.7262 108.687 16.8274 109.084 16.8274C109.481 16.8274 109.818 16.7468 110.047 16.5877C110.275 16.4285 110.39 16.224 110.39 15.9739C110.39 15.7072 110.262 15.5089 110.01 15.3786C109.756 15.2484 109.353 15.1079 108.801 14.9529C108.266 14.8061 107.832 14.6636 107.495 14.5271C107.158 14.3887 106.869 14.1779 106.623 13.8926C106.377 13.6074 106.255 13.2333 106.255 12.7683C106.255 12.3901 106.366 12.0429 106.592 11.7267C106.815 11.4125 107.137 11.1645 107.555 10.9826C107.972 10.8007 108.454 10.7119 108.995 10.7119C109.805 10.7119 110.459 10.9165 110.955 11.3257C111.45 11.7349 111.715 12.293 111.75 12.9998H110.277C110.25 12.6815 110.122 12.4273 109.888 12.2372C109.655 12.047 109.34 11.952 108.943 11.952C108.547 11.952 108.26 12.0264 108.051 12.171C107.844 12.3178 107.741 12.512 107.741 12.7539C107.741 12.944 107.809 13.1031 107.947 13.2313C108.086 13.3615 108.253 13.4628 108.452 13.5351C108.65 13.6074 108.943 13.7004 109.33 13.812C109.847 13.9505 110.273 14.089 110.603 14.2316C110.934 14.3742 111.221 14.5829 111.463 14.8578C111.705 15.1327 111.829 15.5006 111.837 15.9573C111.837 16.3624 111.726 16.7241 111.5 17.0424C111.277 17.3607 110.959 17.6107 110.549 17.7926C110.14 17.9745 109.659 18.0634 109.109 18.0634C108.559 18.0634 108.046 17.9621 107.602 17.7596V17.7637Z" fill="#BDBDBD"></path>
      <path d="M113.503 9.61316C113.321 9.43126 113.232 9.20805 113.232 8.94144C113.232 8.67483 113.323 8.44956 113.503 8.26976C113.683 8.08995 113.908 7.99902 114.175 7.99902C114.442 7.99902 114.652 8.08995 114.834 8.26976C115.016 8.45162 115.105 8.67483 115.105 8.94144C115.105 9.20805 115.014 9.43336 114.834 9.61316C114.652 9.79502 114.433 9.88389 114.175 9.88389C113.916 9.88389 113.683 9.79296 113.503 9.61316ZM114.9 10.8284V17.9505H113.426V10.8284H114.9Z" fill="#BDBDBD"></path>
      <path d="M121.939 11.0612C122.383 11.2947 122.73 11.6378 122.98 12.0946C123.23 12.5513 123.354 13.1031 123.354 13.75V17.9518H121.893V13.9691C121.893 13.3325 121.734 12.8427 121.416 12.5017C121.098 12.1607 120.662 11.9912 120.11 11.9912C119.558 11.9912 119.12 12.1607 118.797 12.5017C118.475 12.8427 118.312 13.3305 118.312 13.9691V17.9518H116.838V10.8297H118.312V11.644C118.554 11.3505 118.861 11.1232 119.236 10.9579C119.609 10.7946 120.009 10.7119 120.432 10.7119C120.992 10.7119 121.495 10.8276 121.939 11.0612Z" fill="#BDBDBD"></path>
      <path d="M131.705 14.9404H126.263C126.307 15.5088 126.518 15.9655 126.896 16.3107C127.274 16.6558 127.741 16.8273 128.293 16.8273C129.087 16.8273 129.647 16.4946 129.973 15.8312H131.562C131.348 16.4863 130.957 17.0216 130.393 17.4412C129.829 17.8587 129.128 18.0674 128.293 18.0674C127.613 18.0674 127.001 17.9145 126.464 17.6086C125.924 17.3027 125.503 16.8707 125.197 16.3168C124.891 15.7609 124.738 15.116 124.738 14.3844C124.738 13.6528 124.887 13.008 125.185 12.452C125.482 11.896 125.899 11.4682 126.439 11.1665C126.979 10.8647 127.596 10.7139 128.295 10.7139C128.994 10.7139 129.566 10.8606 130.091 11.1541C130.616 11.4476 131.025 11.8589 131.319 12.3879C131.612 12.917 131.759 13.5288 131.759 14.217C131.759 14.4836 131.742 14.7254 131.707 14.9404H131.705ZM130.219 13.752C130.211 13.2084 130.017 12.7744 129.638 12.4458C129.26 12.1193 128.789 11.9539 128.229 11.9539C127.72 11.9539 127.284 12.1151 126.923 12.4396C126.561 12.762 126.346 13.2002 126.276 13.752H130.219Z" fill="#BDBDBD"></path>
      <path d="M134.284 17.7637C133.839 17.5611 133.488 17.2863 133.23 16.937C132.971 16.5877 132.833 16.1971 132.816 15.7672H134.342C134.367 16.0689 134.511 16.3211 134.776 16.5236C135.038 16.7262 135.369 16.8274 135.766 16.8274C136.163 16.8274 136.5 16.7468 136.729 16.5877C136.956 16.4285 137.072 16.224 137.072 15.9739C137.072 15.7072 136.944 15.5089 136.692 15.3786C136.437 15.2484 136.034 15.1079 135.483 14.9529C134.947 14.8061 134.513 14.6636 134.176 14.5271C133.839 14.3887 133.55 14.1779 133.304 13.8926C133.058 13.6074 132.936 13.2333 132.936 12.7683C132.936 12.3901 133.048 12.0429 133.273 11.7267C133.496 11.4125 133.819 11.1645 134.236 10.9826C134.654 10.8007 135.135 10.7119 135.677 10.7119C136.487 10.7119 137.14 10.9165 137.636 11.3257C138.132 11.7349 138.397 12.293 138.432 12.9998H136.958C136.931 12.6815 136.803 12.4273 136.57 12.2372C136.336 12.047 136.022 11.952 135.625 11.952C135.228 11.952 134.941 12.0264 134.732 12.171C134.526 12.3178 134.422 12.512 134.422 12.7539C134.422 12.944 134.49 13.1031 134.629 13.2313C134.767 13.3615 134.935 13.4628 135.133 13.5351C135.332 13.6074 135.625 13.7004 136.012 13.812C136.528 13.9505 136.954 14.089 137.285 14.2316C137.616 14.3742 137.903 14.5829 138.145 14.8578C138.386 15.1327 138.51 15.5006 138.519 15.9573C138.519 16.3624 138.407 16.7241 138.182 17.0424C137.959 17.3607 137.64 17.6107 137.231 17.7926C136.822 17.9745 136.34 18.0634 135.791 18.0634C135.241 18.0634 134.728 17.9621 134.284 17.7596V17.7637Z" fill="#BDBDBD"></path>
      <path d="M141.186 17.7637C140.742 17.5611 140.39 17.2863 140.132 16.937C139.874 16.5877 139.735 16.1971 139.719 15.7672H141.244C141.269 16.0689 141.413 16.3211 141.678 16.5236C141.941 16.7262 142.271 16.8274 142.668 16.8274C143.065 16.8274 143.402 16.7468 143.631 16.5877C143.859 16.4285 143.974 16.224 143.974 15.9739C143.974 15.7072 143.846 15.5089 143.594 15.3786C143.34 15.2484 142.937 15.1079 142.385 14.9529C141.849 14.8061 141.416 14.6636 141.079 14.5271C140.742 14.3887 140.453 14.1779 140.207 13.8926C139.961 13.6074 139.839 13.2333 139.839 12.7683C139.839 12.3901 139.95 12.0429 140.175 11.7267C140.399 11.4125 140.721 11.1645 141.139 10.9826C141.556 10.8007 142.038 10.7119 142.579 10.7119C143.389 10.7119 144.042 10.9165 144.539 11.3257C145.034 11.7349 145.299 12.293 145.334 12.9998H143.861C143.834 12.6815 143.706 12.4273 143.472 12.2372C143.238 12.047 142.924 11.952 142.527 11.952C142.131 11.952 141.844 12.0264 141.635 12.171C141.428 12.3178 141.325 12.512 141.325 12.7539C141.325 12.944 141.393 13.1031 141.531 13.2313C141.67 13.3615 141.837 13.4628 142.036 13.5351C142.234 13.6074 142.527 13.7004 142.914 13.812C143.431 13.9505 143.857 14.089 144.187 14.2316C144.518 14.3742 144.805 14.5829 145.047 14.8578C145.289 15.1327 145.413 15.5006 145.421 15.9573C145.421 16.3624 145.309 16.7241 145.084 17.0424C144.861 17.3607 144.543 17.6107 144.133 17.7926C143.724 17.9745 143.243 18.0634 142.693 18.0634C142.143 18.0634 141.63 17.9621 141.186 17.7596V17.7637Z" fill="#BDBDBD"></path>
      <path d="M99.4497 20.7852V29.7694H97.9764V23.6166L95.2358 29.7694H94.2148L91.4619 23.6166V29.7694H89.9883V20.7852H91.5776L94.7313 27.8307L97.873 20.7852H99.4497Z" fill="white"></path>
      <path d="M101.345 24.2765C101.642 23.7247 102.047 23.2969 102.56 22.991C103.072 22.6851 103.639 22.5322 104.261 22.5322C104.821 22.5322 105.311 22.6417 105.728 22.8629C106.146 23.082 106.481 23.3569 106.73 23.6834V22.65H108.216V29.7721H106.73V28.7118C106.481 29.0487 106.14 29.3277 105.71 29.553C105.278 29.7762 104.788 29.8899 104.236 29.8899C103.624 29.8899 103.064 29.7328 102.556 29.4186C102.047 29.1045 101.644 28.6643 101.347 28.1001C101.049 27.5358 100.9 26.8952 100.9 26.18C100.9 25.4649 101.049 24.8304 101.347 24.2786L101.345 24.2765ZM106.425 24.9234C106.222 24.5618 105.957 24.2848 105.629 24.0967C105.3 23.9066 104.949 23.8116 104.569 23.8116C104.188 23.8116 103.837 23.9045 103.508 24.0885C103.182 24.2745 102.915 24.5452 102.713 24.9028C102.51 25.2603 102.409 25.684 102.409 26.1759C102.409 26.6678 102.51 27.0977 102.713 27.4676C102.915 27.8376 103.182 28.1207 103.515 28.315C103.847 28.5093 104.197 28.6064 104.569 28.6064C104.941 28.6064 105.3 28.5114 105.629 28.3212C105.955 28.1311 106.222 27.8541 106.425 27.4883C106.627 27.1225 106.729 26.6926 106.729 26.2028C106.729 25.7129 106.627 25.2851 106.425 24.9234Z" fill="white"></path>
      <path d="M115.255 22.8796C115.7 23.1131 116.047 23.4562 116.297 23.913C116.547 24.3697 116.671 24.9215 116.671 25.5684V29.7702H115.21V25.7875C115.21 25.1509 115.051 24.6611 114.733 24.3201C114.414 23.9791 113.978 23.8096 113.426 23.8096C112.874 23.8096 112.436 23.9791 112.114 24.3201C111.792 24.6611 111.628 25.1489 111.628 25.7875V29.7702H110.154V22.6481H111.628V23.4624C111.87 23.1689 112.178 22.9416 112.552 22.7763C112.926 22.613 113.325 22.5303 113.749 22.5303C114.309 22.5303 114.811 22.646 115.255 22.8796Z" fill="white"></path>
      <path d="M118.501 24.2765C118.798 23.7247 119.204 23.2969 119.716 22.991C120.229 22.6851 120.795 22.5322 121.417 22.5322C121.977 22.5322 122.467 22.6417 122.885 22.8629C123.302 23.082 123.637 23.3569 123.887 23.6834V22.65H125.373V29.7721H123.887V28.7118C123.637 29.0487 123.296 29.3277 122.866 29.553C122.434 29.7762 121.944 29.8899 121.392 29.8899C120.781 29.8899 120.221 29.7328 119.712 29.4186C119.204 29.1045 118.801 28.6643 118.503 28.1001C118.206 27.5358 118.057 26.8952 118.057 26.18C118.057 25.4649 118.206 24.8304 118.503 24.2786L118.501 24.2765ZM123.581 24.9234C123.379 24.5618 123.114 24.2848 122.785 24.0967C122.457 23.9066 122.105 23.8116 121.725 23.8116C121.345 23.8116 120.994 23.9045 120.665 24.0885C120.338 24.2745 120.072 24.5452 119.869 24.9028C119.667 25.2603 119.566 25.684 119.566 26.1759C119.566 26.6678 119.667 27.0977 119.869 27.4676C120.072 27.8376 120.338 28.1207 120.671 28.315C121.004 28.5093 121.353 28.6064 121.725 28.6064C122.097 28.6064 122.457 28.5114 122.785 28.3212C123.112 28.1311 123.379 27.8541 123.581 27.4883C123.784 27.1225 123.885 26.6926 123.885 26.2028C123.885 25.7129 123.784 25.2851 123.581 24.9234Z" fill="white"></path>
      <path d="M131.646 22.8605C132.072 23.0796 132.407 23.3545 132.648 23.681V22.6476H134.134V29.8875C134.134 30.5426 133.996 31.1255 133.721 31.6401C133.447 32.1527 133.048 32.5557 132.525 32.8492C132.004 33.1426 131.38 33.2894 130.656 33.2894C129.691 33.2894 128.889 33.0641 128.252 32.6115C127.614 32.1589 127.252 31.545 127.168 30.77H128.629C128.74 31.1399 128.98 31.4396 129.346 31.6691C129.712 31.8964 130.15 32.0121 130.658 32.0121C131.254 32.0121 131.733 31.8302 132.099 31.4686C132.465 31.1069 132.648 30.5799 132.648 29.8916V28.7032C132.399 29.0401 132.06 29.3212 131.634 29.5506C131.208 29.78 130.723 29.8937 130.179 29.8937C129.559 29.8937 128.99 29.7366 128.478 29.4225C127.965 29.1083 127.56 28.6681 127.263 28.1039C126.965 27.5397 126.816 26.899 126.816 26.1839C126.816 25.4687 126.965 24.8342 127.263 24.2824C127.56 23.7306 127.965 23.3028 128.478 22.9969C128.99 22.691 129.557 22.5381 130.179 22.5381C130.731 22.5381 131.22 22.6476 131.646 22.8688V22.8605ZM132.345 24.9231C132.142 24.5615 131.878 24.2845 131.549 24.0964C131.22 23.9063 130.869 23.8112 130.489 23.8112C130.109 23.8112 129.757 23.9042 129.429 24.0881C129.102 24.2742 128.835 24.5449 128.633 24.9025C128.43 25.26 128.329 25.6837 128.329 26.1756C128.329 26.6675 128.43 27.0974 128.633 27.4673C128.835 27.8373 129.102 28.1204 129.435 28.3147C129.768 28.509 130.117 28.6061 130.489 28.6061C130.861 28.6061 131.22 28.511 131.549 28.3209C131.876 28.1308 132.142 27.8538 132.345 27.488C132.547 27.1222 132.648 26.6923 132.648 26.2024C132.648 25.7126 132.547 25.2848 132.345 24.9231Z" fill="white"></path>
      <path d="M142.551 26.7587H137.109C137.153 27.3271 137.363 27.7839 137.742 28.129C138.12 28.4742 138.587 28.6457 139.139 28.6457C139.933 28.6457 140.492 28.3129 140.819 27.6495H142.408C142.193 28.3047 141.803 28.84 141.239 29.2595C140.674 29.677 139.974 29.8857 139.139 29.8857C138.459 29.8857 137.847 29.7328 137.31 29.4269C136.77 29.1211 136.349 28.6891 136.043 28.1352C135.737 27.5792 135.584 26.9344 135.584 26.2028C135.584 25.4712 135.733 24.8263 136.03 24.2704C136.328 23.7144 136.746 23.2866 137.285 22.9848C137.824 22.6831 138.442 22.5322 139.141 22.5322C139.839 22.5322 140.412 22.679 140.937 22.9724C141.462 23.2659 141.871 23.6772 142.165 24.2063C142.458 24.7354 142.605 25.3472 142.605 26.0354C142.605 26.302 142.588 26.5438 142.553 26.7587H142.551ZM141.065 25.5704C141.056 25.0268 140.862 24.5928 140.484 24.2641C140.106 23.9376 139.635 23.7723 139.075 23.7723C138.566 23.7723 138.13 23.9335 137.769 24.258C137.407 24.5804 137.192 25.0185 137.121 25.5704H141.065Z" fill="white"></path>
      <path d="M154.178 22.8796C154.622 23.1131 154.972 23.4562 155.226 23.913C155.48 24.3697 155.606 24.9215 155.606 25.5684V29.7702H154.145V25.7875C154.145 25.1509 153.986 24.6611 153.667 24.3201C153.349 23.9791 152.913 23.8096 152.361 23.8096C151.81 23.8096 151.371 23.9791 151.049 24.3201C150.726 24.6611 150.563 25.1489 150.563 25.7875V29.7702H149.102V25.7875C149.102 25.1509 148.943 24.6611 148.625 24.3201C148.306 23.9791 147.87 23.8096 147.319 23.8096C146.766 23.8096 146.328 23.9791 146.006 24.3201C145.684 24.6611 145.521 25.1489 145.521 25.7875V29.7702H144.047V22.6481H145.521V23.4624C145.762 23.1689 146.068 22.9416 146.438 22.7763C146.808 22.613 147.205 22.5303 147.626 22.5303C148.195 22.5303 148.703 22.6502 149.152 22.892C149.6 23.1338 149.945 23.4831 150.185 23.9398C150.4 23.5099 150.737 23.1669 151.194 22.9126C151.65 22.6584 152.142 22.5303 152.667 22.5303C153.227 22.5303 153.73 22.646 154.174 22.8796H154.178Z" fill="white"></path>
      <path d="M163.959 26.7587H158.517C158.561 27.3271 158.772 27.7839 159.15 28.129C159.528 28.4742 159.995 28.6457 160.547 28.6457C161.341 28.6457 161.901 28.3129 162.227 27.6495H163.816C163.602 28.3047 163.211 28.84 162.647 29.2595C162.082 29.677 161.382 29.8857 160.547 29.8857C159.867 29.8857 159.255 29.7328 158.718 29.4269C158.178 29.1211 157.757 28.6891 157.451 28.1352C157.145 27.5792 156.992 26.9344 156.992 26.2028C156.992 25.4712 157.141 24.8263 157.439 24.2704C157.736 23.7144 158.154 23.2866 158.693 22.9848C159.233 22.6831 159.85 22.5322 160.549 22.5322C161.248 22.5322 161.82 22.679 162.345 22.9724C162.87 23.2659 163.279 23.6772 163.573 24.2063C163.866 24.7354 164.013 25.3472 164.013 26.0354C164.013 26.302 163.996 26.5438 163.961 26.7587H163.959ZM162.473 25.5704C162.465 25.0268 162.271 24.5928 161.892 24.2641C161.514 23.9376 161.043 23.7723 160.483 23.7723C159.974 23.7723 159.538 23.9335 159.177 24.258C158.815 24.5804 158.6 25.0185 158.53 25.5704H162.473Z" fill="white"></path>
      <path d="M170.558 22.8796C171.002 23.1131 171.349 23.4562 171.6 23.913C171.849 24.3697 171.973 24.9215 171.973 25.5684V29.7702H170.512V25.7875C170.512 25.1509 170.353 24.6611 170.035 24.3201C169.716 23.9791 169.28 23.8096 168.729 23.8096C168.177 23.8096 167.739 23.9791 167.416 24.3201C167.094 24.6611 166.931 25.1489 166.931 25.7875V29.7702H165.457V22.6481H166.931V23.4624C167.172 23.1689 167.48 22.9416 167.854 22.7763C168.229 22.613 168.627 22.5303 169.051 22.5303C169.611 22.5303 170.113 22.646 170.558 22.8796Z" fill="white"></path>
      <path d="M175.567 23.8501V27.7935C175.567 28.0601 175.63 28.2524 175.755 28.3681C175.879 28.4838 176.094 28.5417 176.396 28.5417H177.302V29.7693H176.138C175.474 29.7693 174.966 29.6143 174.612 29.3043C174.259 28.9943 174.083 28.49 174.083 27.7915V23.8481H173.242V22.6452H174.083V20.874H175.569V22.6452H177.302V23.8481H175.569L175.567 23.8501Z" fill="white"></path>
      <path d="M182.878 29.5547C182.395 29.3439 182.016 29.0442 181.742 28.6557C181.465 28.2671 181.328 27.8145 181.328 27.2978H182.905C182.94 27.6863 183.093 28.0046 183.364 28.2547C183.635 28.5048 184.017 28.6288 184.509 28.6288C185.001 28.6288 185.414 28.5069 185.697 28.2609C185.98 28.0149 186.123 27.6987 186.123 27.3102C186.123 27.0084 186.034 26.7625 185.858 26.5724C185.681 26.3822 185.462 26.2355 185.199 26.1321C184.937 26.0288 184.573 25.9172 184.106 25.7953C183.519 25.6402 183.044 25.4832 182.678 25.324C182.312 25.1649 182 24.9169 181.742 24.58C181.483 24.2431 181.353 23.7967 181.353 23.2345C181.353 22.7178 181.483 22.2652 181.742 21.8767C182 21.4881 182.362 21.1905 182.827 20.9838C183.292 20.7772 183.831 20.6738 184.443 20.6738C185.313 20.6738 186.026 20.8908 186.582 21.3269C187.138 21.763 187.446 22.3582 187.506 23.1167H185.877C185.852 22.7902 185.695 22.5091 185.412 22.2756C185.127 22.0441 184.753 21.9263 184.288 21.9263C183.866 21.9263 183.521 22.0337 183.254 22.2487C182.988 22.4636 182.854 22.7736 182.854 23.1787C182.854 23.4536 182.938 23.681 183.106 23.8566C183.273 24.0323 183.486 24.1728 183.746 24.2762C184.005 24.3795 184.358 24.4911 184.807 24.6131C185.402 24.7763 185.885 24.9396 186.262 25.105C186.636 25.2682 186.956 25.5204 187.218 25.8614C187.481 26.2024 187.613 26.6571 187.613 27.2254C187.613 27.6822 187.491 28.1121 187.245 28.5172C186.999 28.9223 186.642 29.2467 186.173 29.4927C185.704 29.7386 185.15 29.8606 184.511 29.8606C183.908 29.8606 183.364 29.7552 182.883 29.5444L182.878 29.5547Z" fill="white"></path>
      <path d="M190.619 29.4396C190.076 29.1338 189.65 28.7018 189.34 28.1479C189.03 27.5919 188.875 26.9471 188.875 26.2155C188.875 25.4839 189.034 24.8494 189.352 24.2892C189.671 23.7292 190.107 23.2993 190.658 22.9975C191.21 22.6958 191.826 22.5449 192.506 22.5449C193.186 22.5449 193.804 22.6958 194.356 22.9975C194.908 23.2993 195.342 23.7292 195.662 24.2892C195.98 24.8494 196.14 25.4921 196.14 26.2155C196.14 26.9389 195.976 27.5816 195.648 28.1417C195.319 28.7018 194.875 29.1358 194.31 29.4417C193.746 29.7476 193.124 29.9005 192.442 29.9005C191.76 29.9005 191.163 29.7476 190.619 29.4417V29.4396ZM193.509 28.3463C193.841 28.1644 194.11 27.8937 194.317 27.532C194.523 27.1703 194.627 26.7301 194.627 26.2134C194.627 25.6967 194.527 25.2586 194.329 24.901C194.13 24.5435 193.868 24.2748 193.54 24.0929C193.213 23.911 192.86 23.8222 192.479 23.8222C192.099 23.8222 191.75 23.9131 191.425 24.0929C191.103 24.2748 190.846 24.5435 190.656 24.901C190.466 25.2586 190.371 25.6967 190.371 26.2134C190.371 26.9802 190.568 27.5734 190.96 27.9908C191.353 28.4083 191.847 28.617 192.44 28.617C192.818 28.617 193.174 28.5261 193.506 28.3463H193.509Z" fill="white"></path>
      <path d="M200.587 23.8609H199.269V29.7822H197.783V23.8609H196.941V22.658H197.783V22.1538C197.783 21.3353 198 20.738 198.436 20.3639C198.872 19.9898 199.554 19.8018 200.484 19.8018V21.0294C200.035 21.0294 199.721 21.1142 199.539 21.2816C199.357 21.449 199.269 21.7404 199.269 22.1538V22.658H200.587V23.8609Z" fill="white"></path>
      <path d="M203.614 23.8609V27.8043C203.614 28.0709 203.676 28.2631 203.802 28.3788C203.926 28.4945 204.141 28.5524 204.443 28.5524H205.348V29.7801H204.185C203.521 29.7801 203.013 29.6251 202.659 29.3151C202.306 29.005 202.13 28.5008 202.13 27.8022V23.8588H201.289V22.656H202.13V20.8848H203.616V22.656H205.348V23.8588H203.616L203.614 23.8609Z" fill="white"></path>
      <path d="M216.268 22.6582L214.056 29.7803H212.504L211.07 24.5183L209.635 29.7803H208.083L205.859 22.6582H207.358L208.844 28.3852L210.356 22.6582H211.894L213.343 28.3583L214.817 22.6582H216.265H216.268Z" fill="white"></path>
      <path d="M217.321 24.2863C217.619 23.7345 218.024 23.3067 218.536 23.0008C219.049 22.6949 219.616 22.542 220.237 22.542C220.798 22.542 221.287 22.6515 221.705 22.8726C222.122 23.0917 222.457 23.3666 222.707 23.6932V22.6598H224.193V29.7818H222.707V28.7216C222.457 29.0585 222.116 29.3375 221.686 29.5627C221.254 29.786 220.764 29.8997 220.213 29.8997C219.601 29.8997 219.041 29.7426 218.532 29.4284C218.024 29.1143 217.621 28.6741 217.323 28.1098C217.026 27.5456 216.877 26.9049 216.877 26.1898C216.877 25.4747 217.026 24.8402 217.323 24.2884L217.321 24.2863ZM222.401 24.9332C222.199 24.5715 221.934 24.2946 221.606 24.1065C221.277 23.9164 220.926 23.8213 220.545 23.8213C220.165 23.8213 219.814 23.9143 219.485 24.0982C219.159 24.2842 218.892 24.555 218.69 24.9126C218.487 25.2701 218.386 25.6938 218.386 26.1857C218.386 26.6776 218.487 27.1075 218.69 27.4774C218.892 27.8473 219.159 28.1305 219.491 28.3248C219.824 28.5191 220.174 28.6162 220.545 28.6162C220.917 28.6162 221.277 28.5211 221.606 28.331C221.932 28.1408 222.199 27.8639 222.401 27.4981C222.604 27.1322 222.705 26.7024 222.705 26.2125C222.705 25.7227 222.604 25.2949 222.401 24.9332Z" fill="white"></path>
      <path d="M228.466 22.8458C228.824 22.6433 229.247 22.542 229.739 22.542V24.0673H229.365C228.789 24.0673 228.35 24.214 228.053 24.5075C227.755 24.801 227.606 25.3094 227.606 26.0327V29.7818H226.133V22.6598H227.606V23.6932C227.821 23.3315 228.109 23.0483 228.466 22.8458Z" fill="white"></path>
      <path d="M237.573 26.7685H232.131C232.174 27.3368 232.385 27.7936 232.763 28.1387C233.141 28.4839 233.608 28.6555 234.16 28.6555C234.954 28.6555 235.514 28.3227 235.84 27.6593H237.43C237.215 28.3144 236.824 28.8497 236.26 29.2693C235.696 29.6868 234.995 29.8955 234.16 29.8955C233.48 29.8955 232.868 29.7426 232.331 29.4367C231.792 29.1308 231.37 28.6989 231.064 28.145C230.758 27.589 230.605 26.9442 230.605 26.2125C230.605 25.4809 230.754 24.8361 231.052 24.2801C231.349 23.7242 231.767 23.2963 232.306 22.9946C232.846 22.6928 233.464 22.542 234.162 22.542C234.861 22.542 235.433 22.6887 235.958 22.9822C236.483 23.2757 236.893 23.6869 237.186 24.2161C237.48 24.7452 237.626 25.3569 237.626 26.0451C237.626 26.3117 237.609 26.5536 237.575 26.7685H237.573ZM236.086 25.5801C236.078 25.0366 235.884 24.6025 235.506 24.2739C235.127 23.9474 234.656 23.782 234.096 23.782C233.588 23.782 233.152 23.9432 232.79 24.2677C232.428 24.5902 232.213 25.0283 232.143 25.5801H236.086Z" fill="white"></path>
      <path d="M80.4515 6.62598H79.625V33.2872H80.4515V6.62598Z" fill="#FF8102"></path>
      <path d="M45.6779 0.0622117C43.7206 0.231686 42.6684 0.502431 40.6846 1.33327C39.6078 1.78796 37.5078 3.07142 36.7286 3.75758C35.6643 4.69177 34.6929 5.68999 33.7463 6.81847C33.1118 7.57074 31.8387 9.56726 31.2435 10.7742C30.7888 11.6567 29.9476 14.3146 29.7141 15.5588C29.5983 16.1933 29.4537 17.6607 29.402 18.8015C29.2863 20.9943 29.0651 22.7966 28.8708 23.1727C28.8068 23.2885 28.753 23.5365 28.753 23.7183C28.753 23.9002 28.7014 24.0821 28.6228 24.1214C28.5443 24.1606 28.4926 24.2909 28.4926 24.3942C28.4926 24.7187 27.7796 26.1323 27.1058 27.1698C25.4586 29.6727 23.3319 31.2166 20.4798 31.9937C19.093 32.3698 16.3297 32.3967 15.2013 32.0453C12.9568 31.3323 11.7002 30.58 10.1294 28.9597C8.9762 27.7795 8.37889 26.9632 7.84773 25.8719C6.71929 23.5117 6.52499 22.6168 6.52499 19.777C6.52499 17.8446 6.57668 17.3527 6.82262 16.4041C7.12024 15.3025 7.19878 15.0814 7.87252 13.616C8.85838 11.4625 11.231 9.18076 13.5665 8.14326C14.6556 7.65138 15.317 7.48187 16.7431 7.31241C18.1051 7.14294 19.6097 7.27316 20.9055 7.66167C21.6971 7.89522 23.3836 8.69922 23.9023 9.08777C24.6422 9.65819 24.7456 9.59411 27.0273 7.23387C29.218 4.98936 29.3751 4.75581 28.9204 4.25154C28.3231 3.59017 26.3143 2.25505 24.8613 1.55441C22.6974 0.490031 20.7133 0.0622117 18.0803 0.0622117C15.317 0.0622117 13.5933 0.399093 11.3757 1.33327C6.82262 3.26569 2.82757 7.76504 0.93442 13.0952C0.609937 14.0025 0.194518 16.0383 0.0787796 17.3093C-0.0906949 19.1115 0.0271105 22.6003 0.299923 23.7948C0.702943 25.5206 0.77941 25.8182 0.948887 26.3618C2.02567 29.7078 3.71215 32.3802 6.31834 34.8561C9.58587 37.9687 13.5541 39.6161 17.7827 39.6161C19.4939 39.6161 20.4281 39.4857 22.3357 39.0062C27.978 37.5532 33.0085 32.3802 34.9037 26.0621C35.5651 23.8837 35.7077 22.9371 35.8895 19.6427C36.0838 16.3607 36.4352 15.0648 37.6794 12.9629C39.2749 10.2906 42.0113 8.17839 44.6442 7.56868C45.8244 7.29589 49.2224 7.33514 50.2204 7.63276C52.6323 8.35819 55.1103 10.1625 56.3816 12.1197C56.588 12.4442 56.8093 12.7542 56.8608 12.8327C56.925 12.8968 57.146 13.3391 57.3796 13.8062C58.8969 16.9063 59.1179 20.7195 57.9896 24.1813C57.6133 25.349 56.7575 26.957 56.4973 27.0086C56.3939 27.021 54.4097 25.1155 52.0497 22.6891C49.5983 20.1987 47.6929 18.3448 47.5503 18.3448C47.42 18.3448 47.2383 18.4233 47.1472 18.5267C47.0561 18.6176 46.6925 19.0185 46.3309 19.3947C45.9816 19.7833 45.2292 20.5748 44.6838 21.1576C43.9313 21.9347 43.6731 22.3109 43.6731 22.5713C43.6731 22.8441 44.1793 23.4145 46.3971 25.5929C52.0517 31.1566 51.9876 31.0781 51.845 31.2476C51.6236 31.5204 49.2636 32.1941 48.2779 32.2727C45.9816 32.4669 43.5056 31.7539 41.3789 30.301C40.302 29.5487 38.4337 27.6555 37.669 26.5147C37.3197 25.9835 36.9808 25.4896 36.9291 25.4255C36.7865 25.2705 36.398 25.905 36.2678 26.4899C36.2161 26.7503 35.9825 27.4633 35.7614 28.073C34.7115 30.8879 34.5689 31.3799 34.633 31.8593C34.7115 32.4814 35.5795 33.6884 36.8258 34.9719C37.6814 35.8275 39.1219 37.02 39.3286 37.02C39.3803 37.02 39.6533 37.1895 39.9507 37.3838C41.2343 38.2394 43.3092 39.0579 45.2292 39.4857C46.0331 39.6553 49.1333 39.589 50.2866 39.3824C52.2977 38.9938 54.1785 38.2415 56.0838 37.0469C56.681 36.6707 57.1998 36.3731 57.2371 36.3731C57.289 36.3731 57.9896 37.0221 58.7935 37.8261C59.6097 38.63 60.4014 39.3431 60.544 39.434C60.7381 39.5374 61.8398 39.5642 64.2145 39.525C66.0684 39.4981 67.6763 39.4464 67.7674 39.4216C68.2074 39.2666 67.8189 38.7334 65.5622 36.4248C64.2517 35.1021 62.7987 33.6243 62.3195 33.1572C61.8276 32.6901 61.4367 32.2107 61.4367 32.1073C61.4367 31.9916 61.6703 31.5493 61.9555 31.1215C62.2406 30.6937 62.708 29.8504 63.0054 29.2407C63.2905 28.6311 63.5884 28.0338 63.6668 27.8911C63.9396 27.36 64.6525 24.9997 64.822 23.987C65.2252 21.7177 65.2767 18.0079 64.9254 16.0879C64.6672 14.6473 64.0181 12.2747 63.706 11.6009C62.3567 8.7736 61.1765 7.06235 59.2315 5.10306C58.1816 4.05312 56.4953 2.65187 56.2739 2.65187C56.1955 2.65187 56.1191 2.61259 56.0921 2.54853C56.0406 2.41832 55.1848 1.93883 54.0957 1.42008C51.7353 0.31849 48.6228 -0.187866 45.6779 0.0580782V0.0622117Z" fill="white"></path>
    </g>
  </g>
  <defs>
    <clipPath id="clip0_2_3">
      <rect width="237.624" height="40" fill="white"></rect>
    </clipPath>
  </defs>
</svg>
